<svg width="1086" height="290" viewBox="0 0 1086 290" fill="none" xmlns="http://www.w3.org/2000/svg">
<path d="M538.4 7.6C534.267 11.8667 523.067 24.2667 513.467 35.3333L496 55.2V96C496 118.533 495.6 157.6 495.2 182.8L494.4 228.667L520 259.067C534.133 275.733 546.133 289.333 546.667 289.067C547.2 288.8 558.4 277.2 571.467 263.333C584.533 249.333 595.867 238 596.8 238C597.733 238 603.333 242 609.2 246.933C620.8 256.533 623.467 257.867 622.133 252.933C618 237.6 606.133 177.333 604.533 163.067C604.133 158.4 602.933 153.867 602.133 152.8C600.933 151.333 595.333 150.8 576 150.4L551.333 150L550.933 168.267C550.8 178.4 550.933 186.667 551.467 186.667C552 186.667 556.533 185.2 561.6 183.333C575.733 178.267 575.067 177.467 573.867 195.6C573.467 204.267 572.533 212.133 572.133 213.067C570.933 215.333 553.333 228 551.467 228C550.667 228 547.467 224.533 544.4 220.4L538.667 212.933V75.0667L542.533 69.2C544.8 66 548 61.8667 549.867 60.1333L553.067 57.0667L573.867 81.0667L586.933 69.0667C594.133 62.4 600 56.2667 600 55.4667C600 52.8 548.933 0 546.4 0C546.133 0 542.533 3.46667 538.4 7.6Z" fill="white"/>
<path d="M0 8.40001C0 9.33334 2.4 12.4 5.33333 15.3333C12.5333 22.4 14.6667 29.3333 30.5333 98C37.8667 129.467 45.7333 163.067 48 172.667C58 214.667 58.8 219.333 56.5333 225.6C55.4667 228.8 53.0667 233.6 51.3333 236.267C49.4667 239.067 48 241.6 48 242C48 242.4 63.8667 242.667 83.3333 242.667C102.8 242.667 118.667 242.267 118.667 241.6C118.667 241.067 117.733 237.333 116.667 233.333C115.6 229.333 114.667 223.867 114.667 221.2C114.667 216.4 126 158.8 127.333 157.6C128.267 156.667 128.8 158.667 134.667 186.667C142.4 223.867 142.4 224.533 137.867 240.267C137.2 242.533 139.467 242.667 172.533 242.667C192 242.667 208.133 242.133 208.533 241.467C208.933 240.8 207.467 237.067 205.333 233.2C202.4 227.733 201.333 224.267 201.333 218.933C201.333 212.667 216.4 117.6 225.867 63.4667C229.333 43.6 235.2 29.0667 244.8 15.6C247.6 11.7333 249.067 8.53334 248.4 7.86667C247.733 7.2 232.667 6.8 214.533 6.93334C182.8 7.33334 182 7.46667 182.4 10C184.133 21.7333 184 31.8667 182 45.3333C178.267 71.6 164 157.733 163.333 158.4C162.533 159.333 154.667 130.133 137.867 64C132.267 41.6 127.467 23.0667 127.2 22.8C126.933 22.5333 126.267 22.5333 125.867 22.9333C125.467 23.4667 117.733 53.8667 108.667 90.6667C99.6 127.467 92 157.867 91.6 158.133C90.9333 158.8 85.3333 133.467 73.8667 76.6667C64.9333 33.3333 64.4 28 66.9333 10C67.3333 7.46667 66.5333 7.33334 33.7333 6.93334C6.53333 6.66667 0 6.93334 0 8.40001Z" fill="white"/>
<path d="M262.4 63.4667C253.333 71.3333 242.8 80.8 239.067 84.5333L232 91.2V211.333L244.267 223.067C260.533 238.533 278 253.333 280.267 253.333C282 253.333 301.467 236.4 319.067 219.867L328 211.333V92.2667L319.067 83.7333C299.467 64.9333 281.867 49.3333 280.4 49.3333C279.467 49.3333 271.333 55.7333 262.4 63.4667ZM293.867 104.133L297.333 108.267V196.533L289.733 204.267C285.467 208.533 281.467 212 280.667 212C279.867 212 275.733 208.8 271.6 204.933L264 197.867V107.067L272 99.4667L280 91.7333L285.333 96C288.133 98.2667 292 101.867 293.867 104.133Z" fill="white"/>
<path d="M790.133 72.8C778.533 83.6 768.667 93.4667 768 94.8C766.933 96.6667 767.6 97.7333 772.4 100.267L778 103.333L778.4 154.267L778.667 205.067L774 209.067L769.2 212.933L776 226.933C780.933 237.2 783.6 241.333 785.733 241.867C789.467 242.8 833.067 242.667 848.667 241.467L860.667 240.667L861.733 216.933C862.4 203.733 862.533 192.133 862.133 191.067C861.467 189.467 860.267 190 856.133 193.2C847.6 200 842 201.733 826.267 202.4L811.867 203.067L812 128.667C812.133 87.8667 811.867 54.1333 811.6 53.7333C811.2 53.4667 801.6 62 790.133 72.8Z" fill="white"/>
<path d="M1012.67 58.2667C998 68 974 90.6667 975.067 93.7333C975.333 94.6667 978.667 95.4667 983.067 95.7333C987.2 96 990.667 96.6667 990.667 97.4667C990.667 99.6 984.133 132 981.867 141.067C980.667 145.733 980 149.867 980.4 150.133C980.8 150.533 984.933 151.6 989.6 152.667C998.933 154.533 1019.2 163.6 1032.27 171.467C1038.67 175.333 1040.93 177.6 1042.93 182.267C1045.73 188.8 1045.6 192.667 1041.73 204.4C1039.47 211.733 1034.8 214.667 1025.73 214.667C1017.2 214.533 1010.13 210.533 1007.6 204.133C1004.67 196.933 1004.67 196.267 1008.67 188.8C1010.53 185.333 1012 182 1012 181.467C1012 180 980.933 177.2 979.733 178.4C978.4 179.733 980.8 203.2 982.933 211.333C983.6 214.267 985.733 219.6 987.6 223.333C996.8 241.733 1000.93 243.333 1037.2 242.4C1050.8 242 1063.6 241.067 1065.47 240.267C1068 239.2 1069.2 237.6 1069.87 234.267C1070.4 231.733 1073.2 223.067 1076.27 215.2L1081.73 200.667L1080.13 182.667C1079.2 172.8 1077.73 163.2 1076.93 161.333C1074.4 156.133 1063.47 148.8 1042.4 138C1031.6 132.4 1021.87 126.533 1020.67 124.933C1016.4 118.8 1019.33 103.2 1025.73 97.8667C1029.33 94.8 1030.8 94.4 1036.93 94.9333C1048.13 95.8667 1053.33 102.667 1053.33 116.4V123.6L1068.8 124.533C1077.33 125.067 1084.67 125.067 1085.2 124.667C1085.6 124.133 1084 118.267 1081.47 111.6C1079.07 104.8 1075.07 93.6 1072.8 86.6667L1068.53 74L1059.87 69.7333C1047.6 63.6 1024.53 54.6667 1020.93 54.6667C1019.33 54.6667 1015.6 56.2667 1012.67 58.2667Z" fill="white"/>
<path d="M889.333 68.1333C878.667 74.6667 867.733 81.3333 865.067 83.0667C859.6 86.2667 858.667 88.9333 862.4 90.1333C870.133 92.6667 875.067 95.6 876.133 98.4C877.6 102.4 877.6 203.067 876.133 214.8C875.467 219.733 873.333 227.333 871.333 231.867C869.2 236.4 868 240.4 868.533 240.933C868.933 241.467 888.667 241.867 912.4 241.867L955.333 242L971.333 210L971.067 158.667L970.667 107.333L959.333 96.2667C940 77.7333 914.133 56 911.333 56.1333C909.867 56.1333 900 61.4667 889.333 68.1333ZM925.867 116.267C939.467 127.333 939.067 125.333 938.4 165.6C937.733 210.8 937.067 212.533 918.933 211.733L910 211.333L909.6 157.6L909.333 103.733L913.6 106.8C915.867 108.533 921.467 112.8 925.867 116.267Z" fill="white"/>
<path d="M627.333 72C616.4 79.3333 607.067 86 606.933 86.6666C606.667 87.4666 608.533 90.1333 611.067 92.6666C615.6 97.0666 615.6 97.3333 616.533 111.6C616.933 119.467 617.333 142.267 617.2 162.133C617.067 203.067 616.8 201.2 628.667 218.133C634.8 226.667 655.867 247.333 660.8 249.6C663.333 250.8 664.933 250.133 671.733 244.933C684.133 235.333 695.467 222.133 701.333 210.267L706.667 199.733V131.2C706.667 93.4666 706.267 62.6666 705.733 62.6666C704.267 62.6666 669.067 83.7333 666.933 85.8666C665.333 87.3333 665.733 88.1333 669.333 90.6666C677.067 96.1333 677.333 98.4 677.333 143.6C677.333 189.067 677.2 189.867 668.133 200L664 204.667L659.2 199.333C648.8 187.867 649.333 191.6 649.333 121.333C649.333 86.9333 648.933 58.6666 648.4 58.6666C647.733 58.6666 638.4 64.6666 627.333 72Z" fill="white"/>
<path d="M326.667 63.4667C326.667 63.8667 328.4 66.6667 330.667 69.7333C336.667 78.2667 339.733 91.2 356.8 180.667C364.8 222.533 364.8 223.6 358.533 234.4C354 242.267 354.533 242.667 369.733 242.667C377.2 242.667 388.4 242.267 394.4 241.733L405.6 240.933L404.667 236.8C401.867 224.533 401.867 222.667 404.667 207.333C409.733 180.267 410.933 175.333 412 177.467C412.533 178.533 414.933 189.467 417.2 201.733C420.933 221.067 421.333 225.067 420.133 230.8C419.333 234.533 418.667 238.267 418.667 239.2C418.667 240.533 424.133 241.2 442.8 242C456 242.533 467.467 242.4 468 241.867C468.667 241.2 467.333 236.933 464.933 232.133C462.267 226.667 460.8 221.867 460.933 218.667C461.2 213.6 474.533 136 481.333 100.267C483.467 88.8 486.667 76.6667 488.533 72.4C490.533 68.4 492 64.5333 492 63.8667C492 63.0667 482.4 62.8 469.733 62.9333L447.333 63.3333L447.733 66.6667C448.933 77.8667 448 87.4667 442.667 123.6C439.333 145.867 436.4 164 436 164C435.6 164 430.533 144.933 424.8 121.6C411.867 69.8667 412.133 70.6667 410.933 70.6667C410 70.6667 406.933 83.2 391.733 146.933C389.6 156.4 387.333 164 386.8 164C386.133 164 383.733 151.867 381.333 136.933C372.933 84.5333 372.133 78.2667 373.333 72C374 68.6667 374.533 65.2 374.667 64.2667C374.667 63.0667 369.067 62.6667 350.667 62.6667C337.467 62.6667 326.667 63.0667 326.667 63.4667Z" fill="white"/>
<path d="M714.667 63.8666C714.667 64.5333 716.667 69.8666 719.067 75.6L723.333 86V218L718.933 229.2C716.667 235.467 715.2 241.067 715.733 241.6C717.2 243.067 768 241.2 768 239.6C768 238.933 766.8 236.8 765.333 234.667C763.867 232.667 761.333 228 759.733 224.533C756.8 218.133 756.667 216.8 756.267 160.8C755.733 95.8667 756.533 84.8 762.667 72.5333C764.8 68 766.667 64 766.667 63.4666C766.667 63.0666 754.933 62.6666 740.667 62.6666C725.6 62.6666 714.667 63.2 714.667 63.8666Z" fill="white"/>
</svg>
