<svg width="274" height="335" viewBox="0 0 274 335" fill="none" xmlns="http://www.w3.org/2000/svg">
<path d="M97.0419 1.58018C97.5368 4.68337 99.9662 11.3395 101.541 14.2178C103.745 18.1305 108.154 23.4824 110.899 25.5512C112.428 26.7205 115.038 27.9348 118.592 29.1941C134.788 34.8158 144.145 41.5619 151.974 53.1202C153.008 54.6493 153.773 55.9535 153.683 56.0435C153.593 56.1334 150.624 54.4244 147.07 52.2207C125.88 38.9984 108.649 33.2417 80.576 30.0486C76.257 29.5539 71.3082 28.9242 69.5536 28.6544C63.975 27.7999 53.9425 25.2364 48.4088 23.2576C40.8057 20.5591 29.0635 14.5776 21.5504 9.54054C18.0862 7.2019 15.0719 5.40295 14.982 5.53787C14.5321 5.98761 16.7365 12.104 18.986 16.5565C24.7446 28.0697 35.0471 37.6941 48.2738 43.9905C54.0774 46.7339 61.0957 49.1625 71.9381 52.1307C90.7885 57.3027 101.856 62.6546 110.989 71.1546C114.228 74.1229 119.716 80.3293 119.716 81.0039C119.716 81.1388 116.432 79.5647 112.428 77.5409C101.406 71.9642 88.1791 67.2419 75.8521 64.4536L70.9483 63.3742L66.8543 64.9932C51.648 71.0197 36.5767 80.824 25.4644 91.8876C14.577 102.726 7.06388 114.15 1.44025 128.316C0.450495 130.79 -0.179351 132.859 0.0455942 132.949C0.22555 133.039 1.71019 132.049 3.2848 130.79C9.98817 125.348 18.2662 120.491 25.1495 118.017C28.8386 116.713 35.4969 114.959 36.0818 115.139C36.2618 115.229 35.092 117.073 33.4275 119.322C23.3949 132.724 17.4114 146.531 14.622 162.946C13.5423 169.108 13.5423 184.444 14.622 191.055C15.3869 195.957 17.8163 205.941 18.5811 207.38C19.2109 208.595 19.3909 208.19 20.5606 203.782C21.9553 198.386 24.2947 192.359 27.264 186.647C29.9633 181.385 35.362 173.785 36.0368 174.19C36.3068 174.325 36.4867 175.224 36.4867 176.213C36.4867 179.407 38.2413 188.266 39.9059 193.393C44.3148 207.065 50.3433 217.14 59.836 226.629C67.7541 234.499 75.8521 240.121 92.2731 249.071C97.8518 252.084 105.095 256.087 108.424 257.931C130.874 270.389 143.561 282.397 152.558 299.667C153.863 302.14 155.078 304.209 155.258 304.299C156.832 304.883 157.642 288.378 156.382 280.778C154.133 266.836 148.464 256.087 137.442 244.619C134.248 241.336 126.69 234.365 120.616 229.148C114.543 223.931 107.254 217.319 104.42 214.441C92.2731 202.298 86.0196 190.875 83.4103 175.989C82.3755 169.827 82.8254 158.629 84.355 152.377C87.6392 139.38 94.0277 128.496 103.88 119.007C107.884 115.184 117.692 107.943 118.232 108.483C118.322 108.573 117.917 110.327 117.287 112.351C114.678 120.491 114.723 129.216 117.422 136.547C119.671 142.753 123.316 147.295 129.029 151.028C137.397 156.515 145.765 157.774 163.356 156.155C173.838 155.166 183.961 155.166 189.449 156.155C197.907 157.684 207.13 161.417 211.224 165.015C215.183 168.478 216.173 173.2 213.968 177.922C213.339 179.272 212.844 180.531 212.844 180.801C212.844 181.295 216.713 181.026 224.001 179.991C234.573 178.462 243.391 174.729 249.195 169.243C252.524 166.094 256.033 161.102 256.033 159.528C256.033 157.684 249.96 153.727 244.516 152.107C240.557 150.893 231.064 150.983 225.756 152.287L221.842 153.277L218.557 149.814C214.328 145.361 210.414 142.438 205.421 139.965C199.932 137.266 195.793 136.322 185.895 135.467C181.306 135.107 176.223 134.478 174.603 134.118C168.395 132.724 161.691 128.316 157.732 123.054C155.663 120.266 152.558 114.689 152.558 113.655C152.558 113.385 153.638 114.15 154.988 115.364C161.196 121.076 170.914 125.708 178.742 126.742C180.542 126.967 184.996 127.372 188.595 127.642C202.541 128.586 212.169 132.589 221.032 141.089L224.541 144.417L227.78 143.877C241.772 141.584 252.794 144.327 260.622 152.018C262.062 153.457 263.501 154.626 263.816 154.626C265.706 154.581 272.184 142.573 273.309 136.996C275.154 127.912 273.264 118.017 268.135 110.057L266.831 107.988L261.297 107.718C253.469 107.404 248.61 105.874 237.858 100.478C232.819 97.959 221.797 91.4378 220.537 90.2685C219.862 89.6389 219.772 88.9643 219.952 86.1759C220.357 79.6547 218.467 74.6626 213.968 70.2552C211.449 67.7816 209.964 66.8821 202.856 63.3292C198.087 60.9906 192.824 57.9773 190.394 56.2233C188.01 54.5143 182.206 49.3424 177.032 44.3503C167 34.5909 162.861 31.2629 156.697 28.0697C151.254 25.2814 148.419 24.247 137.352 21.0089C132.223 19.5247 126.33 17.6808 124.215 16.9162C115.532 13.7681 107.299 8.73101 100.506 2.43468C97.2219 -0.578563 96.637 -0.713484 97.0419 1.58018ZM174.828 78.3954C181.486 79.6547 184.861 80.824 188.1 82.9828C192.959 86.1759 207.13 98.8585 205.825 98.8585C205.6 98.8585 203.891 98.4088 202.046 97.9141C199.572 97.1945 196.693 96.8347 191.249 96.6098C186.03 96.385 183.196 96.0252 181.666 95.4855C178.382 94.3162 174.873 90.8082 172.983 86.8505C170.959 82.6679 169.429 80.869 166.01 78.8002C164.57 77.9007 163.356 77.0462 163.356 76.9113C163.356 76.5515 169.249 77.3161 174.828 78.3954ZM249.51 117.253C253.154 118.962 256.168 123.549 256.843 128.406C257.338 132.094 257.068 132.499 255.583 130.205C253.874 127.507 251.219 125.393 247.89 124.044C244.381 122.605 243.121 121.076 243.706 119.007C244.111 117.568 245.641 116.398 247.035 116.398C247.395 116.398 248.52 116.803 249.51 117.253Z" fill="white"/>
<path d="M101.991 140.279C96.997 148.645 94.9724 155.615 94.6575 165.42C94.3876 173.515 95.1524 177.922 97.8517 184.624C102.486 195.957 109.009 203.603 128.264 220.153C139.512 229.822 147.97 238.007 152.154 243.224C159.847 252.939 165.155 264.092 167.495 275.74C168.395 280.148 168.53 282.082 168.53 291.346C168.485 299.397 168.305 302.95 167.72 306.188C166.055 315.138 163.671 322.963 160.342 330.114C159.217 332.497 158.362 334.656 158.452 334.926C158.722 335.691 166.235 330.384 171.409 325.841C181.486 316.981 189.809 304.749 193.723 292.965C196.648 284.241 197.907 274.121 197.098 266.026C195.388 248.576 189.719 237.018 176.808 224.56C174.153 221.997 167.495 216.555 161.331 211.968C136.452 193.393 130.649 183.544 135.238 167.848C135.508 167.039 135.103 166.769 131.549 165.51C119.177 161.057 110.179 151.883 106.175 139.65C105.635 137.986 104.96 136.637 104.69 136.637C104.375 136.637 103.16 138.256 101.991 140.279Z" fill="white"/>
</svg>
